# xmcd
#
# Track frame offsets: 
#        150
#        20185
#        37281
#        55649
#        76542
#        90171
#        101455
#        112613
#        122468
#        139269
#        159083
#        165257
#        174368
#
# Disc length: 2562 seconds
#
# Revision: 0
# Processed by: cddbd v1.4PL0 Copyright (c) Steve Scherf et al.
# Submitted via: ExactAudioCopy v0.90b3
#
DISCID=850a000d
DTITLE=Tom Waits - Blood Money
DYEAR=2002
DGENRE=Blues
TTITLE0=Misery Is The River Of The Wor
TTITLE1=Everything Goes To Hell
TTITLE2=Coney Island Baby
TTITLE3=All The World Is Green
TTITLE4=God's Away On Business
TTITLE5=Another Man's Vine
TTITLE6=Knife Chase
TTITLE7=Lullaby
TTITLE8=Starving In The Belly Of The W
TTITLE9=The Part You Throw Away
TTITLE10=Woe
TTITLE11=Calliope
TTITLE12=A Good Man Is Hard To Find
EXTD=
EXTT0=
EXTT1=
EXTT2=
EXTT3=
EXTT4=
EXTT5=
EXTT6=
EXTT7=
EXTT8=
EXTT9=
EXTT10=
EXTT11=
EXTT12=
PLAYORDER=
